<svg fill="#000000" xmlns="http://www.w3.org/2000/svg" viewBox="0 0 80 80" width="80px" height="80px"><path d="M 20 9 L 20 72.414063 L 40 52.414063 L 60 72.414063 L 60 9 Z M 22 11 L 58 11 L 58 67.585938 L 40 49.585938 L 22 67.585938 Z M 25 14 C 24.449219 14 24 14.449219 24 15 C 24 15.550781 24.449219 16 25 16 C 25.550781 16 26 15.550781 26 15 C 26 14.449219 25.550781 14 25 14 Z M 55 14 C 54.449219 14 54 14.449219 54 15 C 54 15.550781 54.449219 16 55 16 C 55.550781 16 56 15.550781 56 15 C 56 14.449219 55.550781 14 55 14 Z M 25 18 C 24.449219 18 24 18.449219 24 19 C 24 19.550781 24.449219 20 25 20 C 25.550781 20 26 19.550781 26 19 C 26 18.449219 25.550781 18 25 18 Z M 55 18 C 54.449219 18 54 18.449219 54 19 C 54 19.550781 54.449219 20 55 20 C 55.550781 20 56 19.550781 56 19 C 56 18.449219 55.550781 18 55 18 Z M 25 22 C 24.449219 22 24 22.449219 24 23 C 24 23.550781 24.449219 24 25 24 C 25.550781 24 26 23.550781 26 23 C 26 22.449219 25.550781 22 25 22 Z M 55 22 C 54.449219 22 54 22.449219 54 23 C 54 23.550781 54.449219 24 55 24 C 55.550781 24 56 23.550781 56 23 C 56 22.449219 55.550781 22 55 22 Z M 25 26 C 24.449219 26 24 26.449219 24 27 C 24 27.550781 24.449219 28 25 28 C 25.550781 28 26 27.550781 26 27 C 26 26.449219 25.550781 26 25 26 Z M 55 26 C 54.449219 26 54 26.449219 54 27 C 54 27.550781 54.449219 28 55 28 C 55.550781 28 56 27.550781 56 27 C 56 26.449219 55.550781 26 55 26 Z M 25 30 C 24.449219 30 24 30.449219 24 31 C 24 31.550781 24.449219 32 25 32 C 25.550781 32 26 31.550781 26 31 C 26 30.449219 25.550781 30 25 30 Z M 55 30 C 54.449219 30 54 30.449219 54 31 C 54 31.550781 54.449219 32 55 32 C 55.550781 32 56 31.550781 56 31 C 56 30.449219 55.550781 30 55 30 Z M 25 34 C 24.449219 34 24 34.449219 24 35 C 24 35.550781 24.449219 36 25 36 C 25.550781 36 26 35.550781 26 35 C 26 34.449219 25.550781 34 25 34 Z M 55 34 C 54.449219 34 54 34.449219 54 35 C 54 35.550781 54.449219 36 55 36 C 55.550781 36 56 35.550781 56 35 C 56 34.449219 55.550781 34 55 34 Z M 25 38 C 24.449219 38 24 38.449219 24 39 C 24 39.550781 24.449219 40 25 40 C 25.550781 40 26 39.550781 26 39 C 26 38.449219 25.550781 38 25 38 Z M 55 38 C 54.449219 38 54 38.449219 54 39 C 54 39.550781 54.449219 40 55 40 C 55.550781 40 56 39.550781 56 39 C 56 38.449219 55.550781 38 55 38 Z M 25 42 C 24.449219 42 24 42.449219 24 43 C 24 43.550781 24.449219 44 25 44 C 25.550781 44 26 43.550781 26 43 C 26 42.449219 25.550781 42 25 42 Z M 55 42 C 54.449219 42 54 42.449219 54 43 C 54 43.550781 54.449219 44 55 44 C 55.550781 44 56 43.550781 56 43 C 56 42.449219 55.550781 42 55 42 Z M 40 44 C 39.449219 44 39 44.449219 39 45 C 39 45.550781 39.449219 46 40 46 C 40.550781 46 41 45.550781 41 45 C 41 44.449219 40.550781 44 40 44 Z M 25 46 C 24.449219 46 24 46.449219 24 47 C 24 47.550781 24.449219 48 25 48 C 25.550781 48 26 47.550781 26 47 C 26 46.449219 25.550781 46 25 46 Z M 55 46 C 54.449219 46 54 46.449219 54 47 C 54 47.550781 54.449219 48 55 48 C 55.550781 48 56 47.550781 56 47 C 56 46.449219 55.550781 46 55 46 Z M 37 47 C 36.449219 47 36 47.449219 36 48 C 36 48.550781 36.449219 49 37 49 C 37.550781 49 38 48.550781 38 48 C 38 47.449219 37.550781 47 37 47 Z M 43 47 C 42.449219 47 42 47.449219 42 48 C 42 48.550781 42.449219 49 43 49 C 43.550781 49 44 48.550781 44 48 C 44 47.449219 43.550781 47 43 47 Z M 25 50 C 24.449219 50 24 50.449219 24 51 C 24 51.550781 24.449219 52 25 52 C 25.550781 52 26 51.550781 26 51 C 26 50.449219 25.550781 50 25 50 Z M 34 50 C 33.449219 50 33 50.449219 33 51 C 33 51.550781 33.449219 52 34 52 C 34.550781 52 35 51.550781 35 51 C 35 50.449219 34.550781 50 34 50 Z M 46 50 C 45.449219 50 45 50.449219 45 51 C 45 51.550781 45.449219 52 46 52 C 46.550781 52 47 51.550781 47 51 C 47 50.449219 46.550781 50 46 50 Z M 55 50 C 54.449219 50 54 50.449219 54 51 C 54 51.550781 54.449219 52 55 52 C 55.550781 52 56 51.550781 56 51 C 56 50.449219 55.550781 50 55 50 Z M 31 53 C 30.449219 53 30 53.449219 30 54 C 30 54.550781 30.449219 55 31 55 C 31.550781 55 32 54.550781 32 54 C 32 53.449219 31.550781 53 31 53 Z M 49 53 C 48.449219 53 48 53.449219 48 54 C 48 54.550781 48.449219 55 49 55 C 49.550781 55 50 54.550781 50 54 C 50 53.449219 49.550781 53 49 53 Z M 25 54 C 24.449219 54 24 54.449219 24 55 C 24 55.550781 24.449219 56 25 56 C 25.550781 56 26 55.550781 26 55 C 26 54.449219 25.550781 54 25 54 Z M 55 54 C 54.449219 54 54 54.449219 54 55 C 54 55.550781 54.449219 56 55 56 C 55.550781 56 56 55.550781 56 55 C 56 54.449219 55.550781 54 55 54 Z M 28 56 C 27.449219 56 27 56.449219 27 57 C 27 57.550781 27.449219 58 28 58 C 28.550781 58 29 57.550781 29 57 C 29 56.449219 28.550781 56 28 56 Z M 52 56 C 51.449219 56 51 56.449219 51 57 C 51 57.550781 51.449219 58 52 58 C 52.550781 58 53 57.550781 53 57 C 53 56.449219 52.550781 56 52 56 Z M 25 59 C 24.449219 59 24 59.449219 24 60 C 24 60.550781 24.449219 61 25 61 C 25.550781 61 26 60.550781 26 60 C 26 59.449219 25.550781 59 25 59 Z M 55 59 C 54.449219 59 54 59.449219 54 60 C 54 60.550781 54.449219 61 55 61 C 55.550781 61 56 60.550781 56 60 C 56 59.449219 55.550781 59 55 59 Z"/></svg>