<svg fill="#000000" 
    xmlns="http://www.w3.org/2000/svg" viewBox="0 0 56 56" width="200px" height="200px">
    <path d="M 19 6 C 17.347656 6 16 7.347656 16 9 L 16 55.027344 C 16 55.785156 16.417969 56.46875 17.09375 56.8125 C 17.769531 57.152344 18.574219 57.085938 19.183594 56.640625 L 31.40625 47.671875 C 31.761719 47.414063 32.238281 47.414063 32.59375 47.671875 L 44.816406 56.640625 C 45.171875 56.898438 45.585938 57.027344 46 57.027344 C 46.308594 57.027344 46.621094 56.957031 46.90625 56.8125 C 47.582031 56.46875 48 55.785156 48 55.027344 L 48 9 C 48 7.347656 46.652344 6 45 6 Z M 19 8 L 45 8 C 45.550781 8 46 8.449219 46 9 L 46 55.027344 L 33.773438 46.0625 C 33.242188 45.671875 32.621094 45.476563 32 45.476563 C 31.378906 45.476563 30.757813 45.671875 30.226563 46.0625 L 18 55.027344 L 18 9 C 18 8.449219 18.449219 8 19 8 Z M 22 10 C 21.445313 10 21 10.445313 21 11 L 21 13 C 21 13.554688 21.445313 14 22 14 C 22.554688 14 23 13.554688 23 13 L 23 11 C 23 10.445313 22.554688 10 22 10 Z M 27 10 C 26.445313 10 26 10.445313 26 11 L 26 13 C 26 13.554688 26.445313 14 27 14 C 27.554688 14 28 13.554688 28 13 L 28 11 C 28 10.445313 27.554688 10 27 10 Z M 32 10 C 31.445313 10 31 10.445313 31 11 L 31 13 C 31 13.554688 31.445313 14 32 14 C 32.554688 14 33 13.554688 33 13 L 33 11 C 33 10.445313 32.554688 10 32 10 Z M 37 10 C 36.445313 10 36 10.445313 36 11 L 36 13 C 36 13.554688 36.445313 14 37 14 C 37.554688 14 38 13.554688 38 13 L 38 11 C 38 10.445313 37.554688 10 37 10 Z M 42 10 C 41.445313 10 41 10.445313 41 11 L 41 13 C 41 13.554688 41.445313 14 42 14 C 42.554688 14 43 13.554688 43 13 L 43 11 C 43 10.445313 42.554688 10 42 10 Z"/>
</svg>